<svg xmlns="http://www.w3.org/2000/svg" xmlns:xlink="http://www.w3.org/1999/xlink" viewBox="0 0 3402.98 566.93"><defs><clipPath id="a"><path d="M283.6,460.91a56.66,56.66,0,0,1-9.38-12.48L294,351.34A102.1,102.1,0,0,1,306.66,338q8.61-7.85,18.76-7.86,8.61,0,11.91,7.05t3.29,17.9q0,9.22-2.28,27.94A267.78,267.78,0,0,1,331,420.5,133.14,133.14,0,0,1,317.81,453q-8.12,13.83-20.27,13.84a18.79,18.79,0,0,1-13.94-6M230.12,150.63l-72,364.52h82.12l22.81-35.26h3.55A49.15,49.15,0,0,0,278,494.81a82.57,82.57,0,0,0,18.25,12.75,106.5,106.5,0,0,0,23.32,8.68,108.52,108.52,0,0,0,26.61,3.25q22.82,0,39.28-10.3a90.36,90.36,0,0,0,27.38-26.58,149,149,0,0,0,17.48-36.08A298.39,298.39,0,0,0,440.48,408a290.18,290.18,0,0,0,4.57-33.9q1-15.18,1-22.78a131,131,0,0,0-3-28.75,62.47,62.47,0,0,0-10.14-23.33,49.38,49.38,0,0,0-19-15.46q-11.91-5.7-29.65-5.69a106.06,106.06,0,0,0-41.82,8.95q-21,8.94-37.77,29.56h-3.54l32.94-166Z" fill="none" stroke="#1d1d1b" stroke-miterlimit="10" stroke-width="0.71"/></clipPath><linearGradient id="b" x1="1561.53" y1="581.2" x2="1564.88" y2="581.2" gradientTransform="matrix(803.19, 0, 0, -803.19, -1254043.18, 467143.47)" gradientUnits="userSpaceOnUse"><stop offset="0" stop-color="#a88371"/><stop offset="0.18" stop-color="#d6a74e"/><stop offset="0.32" stop-color="#fee69c"/><stop offset="0.49" stop-color="#eabc71"/><stop offset="0.65" stop-color="#fbd384"/><stop offset="0.87" stop-color="#ba9247"/><stop offset="1" stop-color="#9b7524"/></linearGradient><clipPath id="c"><path d="M564.66,275.12,518.52,508.37H621.43l47.14-233.25ZM613.06,165a55.72,55.72,0,0,0-18.24,9.49,44.28,44.28,0,0,0-12.43,15.73,48.86,48.86,0,0,0-4.56,21.42q0,22.26,13.69,32.55t34,10.31a68,68,0,0,0,20.79-3.25,53.93,53.93,0,0,0,18-9.77,50.57,50.57,0,0,0,12.67-15.73q4.82-9.22,4.81-21.7,0-21.69-13.68-32t-33.45-10.31A71.32,71.32,0,0,0,613.06,165" fill="none" stroke="#1d1d1b" stroke-miterlimit="10" stroke-width="0.71"/></clipPath><linearGradient id="d" x1="1561.61" y1="581.2" x2="1564.97" y2="581.2" xlink:href="#b"/><clipPath id="e"><polygon points="810.08 152.8 738.1 517.32 841.51 517.32 862.8 408.3 914.5 517.32 1028.05 517.32 952.52 372.49 1053.39 284.07 986.48 284.07 868.38 382.8 914 152.8 810.08 152.8" fill="none" stroke="#1d1d1b" stroke-miterlimit="10" stroke-width="0.71"/></clipPath><linearGradient id="f" x1="1561.7" y1="581.2" x2="1565.05" y2="581.2" xlink:href="#b"/><clipPath id="g"><path d="M1220.39,355.41a138.36,138.36,0,0,1,10.14-21.7,57.06,57.06,0,0,1,12.41-15.19,22.9,22.9,0,0,1,15-5.7q7.1,0,12.16,6t5.07,22.78a121.41,121.41,0,0,1-.76,13c-.5,4.7-1.1,9-1.77,13-.68,4.71-1.36,9.22-2,13.56h-57.78a196.26,196.26,0,0,1,7.6-25.76m-33.71-67.54q-31.17,11.94-49.67,31.73a115.32,115.32,0,0,0-26.37,45.3,175.81,175.81,0,0,0-7.85,52.07q0,29.29,9.38,49.09t25.59,31.74q16.23,11.93,38,16.81a215.79,215.79,0,0,0,47.15,4.88q13.68,0,28.89-1.35a270.43,270.43,0,0,0,29.9-4.35,184.77,184.77,0,0,0,27.88-7.86A103.36,103.36,0,0,0,1332.92,494l13.18-58H1263a76.27,76.27,0,0,1-8.37,19.53,82.71,82.71,0,0,1-11.15,14.65,51.7,51.7,0,0,1-11.66,9.22q-5.82,3.25-10.39,3.26-6.08,0-9.38-3.53a23.69,23.69,0,0,1-5.06-8.68,45.24,45.24,0,0,1-2.28-11.11c-.35-4-.51-7.6-.51-10.86q0-8.67.76-19.53t2.78-22.78h142.44q8.11-11.92,12.17-29a138.17,138.17,0,0,0,4-31.74q0-35.79-25.59-52.61t-76.29-16.81q-46.65,0-77.81,11.93" fill="none" stroke="#1d1d1b" stroke-miterlimit="10" stroke-width="0.71"/></clipPath><linearGradient id="h" x1="1561.76" y1="581.12" x2="1565.12" y2="581.12" xlink:href="#b"/><clipPath id="i"><path d="M1570,301.7a112.89,112.89,0,0,0-29.91,33.09h-3.55L1529,294.1h-82.62l-46.12,233.26h103.4l32.44-162.19q6.09-8.15,11.92-10.57a28,28,0,0,1,10.9-2.45q10.13,0,14.69,13.29t5.58,46.92h55.25l22.31-111.74a50.43,50.43,0,0,0-11.41-6.78,79.58,79.58,0,0,0-11.15-3.8,53.28,53.28,0,0,0-9.63-1.62q-4.32-.29-6.34-.28-29.91,0-48.15,13.56" fill="#edcc76" stroke="#1d1d1b" stroke-miterlimit="10" stroke-width="0.71"/></clipPath><clipPath id="j"><path d="M1797.24,289.66a133.85,133.85,0,0,0-39.54,14.1,82.58,82.58,0,0,0-28.39,25.77q-10.9,16-10.9,39.87,0,16.83,5.07,27.94a56.17,56.17,0,0,0,12.68,18.17,59.86,59.86,0,0,0,16,10.84,86.74,86.74,0,0,0,15,5.43l19,5.69a113.51,113.51,0,0,1,18,7.06,46.81,46.81,0,0,1,13.43,9.76,18.86,18.86,0,0,1,5.33,13.29q0,7.6-6.34,16.55t-21,8.95q-13.18,0-18.5-7.33t-5.32-19.8V460.8a28,28,0,0,1,.51-5.15h-68.44l-10.64,54.25q10.65,6,37.52,12.47t67.91,6.51a317.5,317.5,0,0,0,50.44-3.8q23.57-3.78,41.06-13.29a73.11,73.11,0,0,0,27.37-25q9.89-15.45,9.89-38.24,0-16.26-5.07-27.39a55.26,55.26,0,0,0-13.69-18.72,71.89,71.89,0,0,0-19.51-12.2,178,178,0,0,0-23.07-7.86c-5.74-1.44-11.58-2.89-17.48-4.34a88.09,88.09,0,0,1-16-5.43,31.63,31.63,0,0,1-11.41-8.4q-4.3-5.16-4.31-13.84,0-13,8.62-20.88t17.24-7.87q9.62,0,12.93,8.41a49.54,49.54,0,0,1,3.29,18.17,33.3,33.3,0,0,1-.51,6l-1,5.42h65.9l11.66-54.78q-15.72-8.67-40.55-14.11a247.69,247.69,0,0,0-52.72-5.42,229.36,229.36,0,0,0-44.35,4.34" fill="none" stroke="#1d1d1b" stroke-miterlimit="10" stroke-width="0.71"/></clipPath><linearGradient id="k" x1="1561.87" y1="581.11" x2="1565.21" y2="581.11" xlink:href="#b"/><clipPath id="l"><path d="M2178.93,289l-34,168.7a75.45,75.45,0,0,1-12.67,12.47q-8.12,6.53-17.24,6.51-8.62,0-11.91-5.7a27,27,0,0,1-3.29-13.82,59.64,59.64,0,0,1,.76-8.41c.5-3.43,1.09-7.06,1.77-10.85s1.35-7.68,2-11.67,1.34-7.4,2-10.3L2131.79,289h-102.9L2007.6,394.73q-3.55,17.91-7.85,38.24t-4.31,33.91q0,26.58,17.23,43.13t47.65,16.54q22.8,0,45.37-11.12t35.73-27.94h3l9.13,34.72h82.11L2282.33,289Z" fill="none" stroke="#1d1d1b" stroke-miterlimit="10" stroke-width="0.71"/></clipPath><linearGradient id="m" x1="1561.92" y1="581.11" x2="1565.26" y2="581.11" xlink:href="#b"/><clipPath id="n"><path d="M2426.09,280.27a133.58,133.58,0,0,0-39.54,14.11,82.38,82.38,0,0,0-28.39,25.77q-10.9,16-10.89,39.86,0,16.83,5.07,27.94A55.89,55.89,0,0,0,2365,406.12,59.91,59.91,0,0,0,2381,417a88.46,88.46,0,0,0,15,5.43q9.12,2.72,19,5.69a112.88,112.88,0,0,1,18,7.06,46.63,46.63,0,0,1,13.43,9.76,18.86,18.86,0,0,1,5.33,13.28q0,7.6-6.34,16.55t-21,8.95q-13.18,0-18.5-7.31t-5.31-19.81v-5.15a28,28,0,0,1,.5-5.16h-68.43l-10.65,54.25q10.65,6,37.51,12.47t67.93,6.51a318.59,318.59,0,0,0,50.43-3.79q23.58-3.81,41.06-13.3a73,73,0,0,0,27.37-24.95q9.89-15.46,9.88-38.24,0-16.27-5.06-27.39a55.16,55.16,0,0,0-13.69-18.72,71.55,71.55,0,0,0-19.52-12.2,177.88,177.88,0,0,0-23.06-7.87q-8.62-2.16-17.49-4.34a88.51,88.51,0,0,1-16-5.42,31.77,31.77,0,0,1-11.41-8.41q-4.3-5.14-4.3-13.83,0-13,8.61-20.88t17.23-7.87q9.63,0,12.93,8.4a49.6,49.6,0,0,1,3.3,18.18,33.3,33.3,0,0,1-.51,6l-1,5.42h65.91l11.65-54.79q-15.72-8.67-40.55-14.1a247.12,247.12,0,0,0-52.72-5.42,230.13,230.13,0,0,0-44.35,4.33" fill="none" stroke="#1d1d1b" stroke-miterlimit="10" stroke-width="0.71"/></clipPath><linearGradient id="o" x1="1561.97" y1="581.12" x2="1565.32" y2="581.12" xlink:href="#b"/><clipPath id="p"><path d="M2651.31,411.27a55.25,55.25,0,0,0-17.49,10,47.49,47.49,0,0,0-12.16,16.28,51.92,51.92,0,0,0-4.57,22.23q0,23.88,13.43,35t32.71,11.12a64.37,64.37,0,0,0,21.28-3.53,57.68,57.68,0,0,0,18-10,49,49,0,0,0,12.67-16.28,49.56,49.56,0,0,0,4.82-22.23q0-23.87-13.69-35t-34.47-11.12a60.9,60.9,0,0,0-20.53,3.52" fill="none" stroke="#1d1d1b" stroke-miterlimit="10" stroke-width="0.71"/></clipPath><linearGradient id="q" x1="1562.01" y1="581.04" x2="1565.37" y2="581.04" xlink:href="#b"/><clipPath id="r"><path d="M2856.38,459.51Q2850,453,2850.05,440a46,46,0,0,1,3-16.28,41.79,41.79,0,0,1,9.37-14.65,46.51,46.51,0,0,1,16.73-10.57q10.38-4.07,25.09-4.07h9.12l-8.11,41.77a34.74,34.74,0,0,1-12.92,21.7c-6.94,5.41-13.94,8.14-21,8.14a20.21,20.21,0,0,1-15-6.52m-6.58-180.36a219.82,219.82,0,0,0-53,19.8l-9.63,48.27h74q2.53-15.72,10.9-26.85t26.1-11.12c10.15,0,16.81,2.81,20,8.41a36,36,0,0,1,4.81,18.18,118.43,118.43,0,0,1-1.52,17.62q-1.51,10.05-2.53,15.46-29.92,0-59.56,2.17t-53.22,10.58q-23.58,8.41-38,24.95t-14.45,44.76q0,17.36,5.57,29.56A57.62,57.62,0,0,0,2774,501a59.85,59.85,0,0,0,20.79,11.68,77.09,77.09,0,0,0,23.82,3.78q21.3,0,42.84-10a111,111,0,0,0,37.76-29h3l9.12,34.72H2993l23.83-119.34q1.53-8.13,2.79-20.07a212.56,212.56,0,0,0,1.26-22.24q0-17.89-5.06-32a55.43,55.43,0,0,0-17.75-24.41q-12.66-10.31-34-15.74t-53.73-5.42q-33.45,0-60.57,6.24" fill="none" stroke="#1d1d1b" stroke-miterlimit="10" stroke-width="0.71"/></clipPath><linearGradient id="s" x1="1562.04" y1="581.12" x2="1565.38" y2="581.12" xlink:href="#b"/><clipPath id="t"><path d="M3175.32,200.48a351.1,351.1,0,0,1-23.57,29.29,132.4,132.4,0,0,1-22.8,20.07,126.47,126.47,0,0,1-26.11,13.56,250.15,250.15,0,0,1-33,9.76l-7.1,36.34h39.54l-21.29,108a167.33,167.33,0,0,0-3.29,21.7q-.77,9.77-.77,16.28,0,18.44,5.83,29.29a41.46,41.46,0,0,0,15.46,16.54,61,61,0,0,0,21.8,7.6,161.57,161.57,0,0,0,24.84,1.89q7.1,0,16.47-.26t18.25-1.09c5.91-.54,11.32-1,16.22-1.35a53.91,53.91,0,0,0,10.9-1.64l7.6-37.42q-20.26,0-27.62-2.72t-7.35-13.56a104.81,104.81,0,0,1,1.52-15.19q1.53-9.75,4-22.24l20.79-105.78h40l6.59-36.34h-39.53l14.69-72.68Z" fill="none" stroke="#1d1d1b" stroke-miterlimit="10" stroke-width="0.71"/></clipPath><linearGradient id="u" x1="1562.03" y1="581.17" x2="1565.38" y2="581.17" xlink:href="#b"/></defs><g clip-path="url(#a)"><rect x="158.14" y="150.63" width="287.92" height="368.86" stroke="#1d1d1b" stroke-miterlimit="10" stroke-width="0.71" fill="url(#b)"/></g><path d="M283.6,460.91a56.66,56.66,0,0,1-9.38-12.48L294,351.34A102.1,102.1,0,0,1,306.66,338q8.61-7.85,18.76-7.86,8.61,0,11.91,7.05t3.29,17.9q0,9.22-2.28,27.94A267.78,267.78,0,0,1,331,420.5,133.14,133.14,0,0,1,317.81,453q-8.12,13.83-20.27,13.84a18.79,18.79,0,0,1-13.94-6M230.12,150.63l-72,364.52h82.12l22.81-35.26h3.55A49.15,49.15,0,0,0,278,494.81a82.57,82.57,0,0,0,18.25,12.75,106.5,106.5,0,0,0,23.32,8.68,108.52,108.52,0,0,0,26.61,3.25q22.82,0,39.28-10.3a90.36,90.36,0,0,0,27.38-26.58,149,149,0,0,0,17.48-36.08A298.39,298.39,0,0,0,440.48,408a290.18,290.18,0,0,0,4.57-33.9q1-15.18,1-22.78a131,131,0,0,0-3-28.75,62.47,62.47,0,0,0-10.14-23.33,49.38,49.38,0,0,0-19-15.46q-11.91-5.7-29.65-5.69a106.06,106.06,0,0,0-41.82,8.95q-21,8.94-37.77,29.56h-3.54l32.94-166Z" fill="none" stroke="#1d1d1b" stroke-miterlimit="10" stroke-width="0.71"/><g clip-path="url(#c)"><rect x="518.52" y="161.75" width="163.22" height="346.63" stroke="#1d1d1b" stroke-miterlimit="10" stroke-width="0.71" fill="url(#d)"/></g><path d="M564.66,275.12,518.52,508.37H621.43l47.14-233.25ZM613.06,165a55.72,55.72,0,0,0-18.24,9.49,44.28,44.28,0,0,0-12.43,15.73,48.86,48.86,0,0,0-4.56,21.42q0,22.26,13.69,32.55t34,10.31a68,68,0,0,0,20.79-3.25,53.93,53.93,0,0,0,18-9.77,50.57,50.57,0,0,0,12.67-15.73q4.82-9.22,4.81-21.7,0-21.69-13.68-32t-33.45-10.31A71.32,71.32,0,0,0,613.06,165" fill="none" stroke="#1d1d1b" stroke-miterlimit="10" stroke-width="0.71"/><g clip-path="url(#e)"><rect x="738.1" y="152.8" width="315.29" height="364.52" stroke="#1d1d1b" stroke-miterlimit="10" stroke-width="0.71" fill="url(#f)"/></g><polygon points="810.08 152.8 738.1 517.32 841.51 517.32 862.8 408.3 914.5 517.32 1028.05 517.32 952.52 372.49 1053.39 284.07 986.48 284.07 868.38 382.8 914 152.8 810.08 152.8" fill="none" stroke="#1d1d1b" stroke-miterlimit="10" stroke-width="0.71"/><g clip-path="url(#g)"><rect x="1102.79" y="275.94" width="263.58" height="243.56" stroke="#1d1d1b" stroke-miterlimit="10" stroke-width="0.71" fill="url(#h)"/></g><path d="M1220.39,355.41a138.36,138.36,0,0,1,10.14-21.7,57.06,57.06,0,0,1,12.41-15.19,22.9,22.9,0,0,1,15-5.7q7.1,0,12.16,6t5.07,22.78a121.41,121.41,0,0,1-.76,13c-.5,4.7-1.1,9-1.77,13-.68,4.71-1.36,9.22-2,13.56h-57.78a196.26,196.26,0,0,1,7.6-25.76m-33.71-67.54q-31.17,11.94-49.67,31.73a115.32,115.32,0,0,0-26.37,45.3,175.81,175.81,0,0,0-7.85,52.07q0,29.29,9.38,49.09t25.59,31.74q16.23,11.93,38,16.81a215.79,215.79,0,0,0,47.15,4.88q13.68,0,28.89-1.35a270.43,270.43,0,0,0,29.9-4.35,184.77,184.77,0,0,0,27.88-7.86A103.36,103.36,0,0,0,1332.92,494l13.18-58H1263a76.27,76.27,0,0,1-8.37,19.53,82.71,82.71,0,0,1-11.15,14.65,51.7,51.7,0,0,1-11.66,9.22q-5.82,3.25-10.39,3.26-6.08,0-9.38-3.53a23.69,23.69,0,0,1-5.06-8.68,45.24,45.24,0,0,1-2.28-11.11c-.35-4-.51-7.6-.51-10.86q0-8.67.76-19.53t2.78-22.78h142.44q8.11-11.92,12.17-29a138.17,138.17,0,0,0,4-31.74q0-35.79-25.59-52.61t-76.29-16.81q-46.65,0-77.81,11.93" fill="none" stroke="#1d1d1b" stroke-miterlimit="10" stroke-width="0.71"/><path d="M1570,301.7a112.89,112.89,0,0,0-29.91,33.09h-3.55L1529,294.1h-82.62l-46.12,233.26h103.4l32.44-162.19q6.09-8.15,11.92-10.57a28,28,0,0,1,10.9-2.45q10.13,0,14.69,13.29t5.58,46.92h55.25l22.31-111.74a50.43,50.43,0,0,0-11.41-6.78,79.58,79.58,0,0,0-11.15-3.8,53.28,53.28,0,0,0-9.63-1.62q-4.32-.29-6.34-.28-29.91,0-48.15,13.56" fill="#edcc76"/><g clip-path="url(#i)"><rect x="1400.22" y="288.14" width="256.49" height="239.22" fill="#edcc76" stroke="#1d1d1b" stroke-miterlimit="10" stroke-width="0.71"/></g><path d="M1570,301.7a112.89,112.89,0,0,0-29.91,33.09h-3.55L1529,294.1h-82.62l-46.12,233.26h103.4l32.44-162.19q6.09-8.15,11.92-10.57a28,28,0,0,1,10.9-2.45q10.13,0,14.69,13.29t5.58,46.92h55.25l22.31-111.74a50.43,50.43,0,0,0-11.41-6.78,79.58,79.58,0,0,0-11.15-3.8,53.28,53.28,0,0,0-9.63-1.62q-4.32-.29-6.34-.28-29.91,0-48.15,13.56" fill="none" stroke="#1d1d1b" stroke-miterlimit="10" stroke-width="0.71"/><g clip-path="url(#j)"><rect x="1693.07" y="285.32" width="241.79" height="243.56" stroke="#1d1d1b" stroke-miterlimit="10" stroke-width="0.71" fill="url(#k)"/></g><path d="M1797.24,289.66a133.85,133.85,0,0,0-39.54,14.1,82.58,82.58,0,0,0-28.39,25.77q-10.9,16-10.9,39.87,0,16.83,5.07,27.94a56.17,56.17,0,0,0,12.68,18.17,59.86,59.86,0,0,0,16,10.84,86.74,86.74,0,0,0,15,5.43l19,5.69a113.51,113.51,0,0,1,18,7.06,46.81,46.81,0,0,1,13.43,9.76,18.86,18.86,0,0,1,5.33,13.29q0,7.6-6.34,16.55t-21,8.95q-13.18,0-18.5-7.33t-5.32-19.8V460.8a28,28,0,0,1,.51-5.15h-68.44l-10.64,54.25q10.65,6,37.52,12.47t67.91,6.51a317.5,317.5,0,0,0,50.44-3.8q23.57-3.78,41.06-13.29a73.11,73.11,0,0,0,27.37-25q9.89-15.45,9.89-38.24,0-16.26-5.07-27.39a55.26,55.26,0,0,0-13.69-18.72,71.89,71.89,0,0,0-19.51-12.2,178,178,0,0,0-23.07-7.86c-5.74-1.44-11.58-2.89-17.48-4.34a88.09,88.09,0,0,1-16-5.43,31.63,31.63,0,0,1-11.41-8.4q-4.3-5.16-4.31-13.84,0-13,8.62-20.88t17.24-7.87q9.62,0,12.93,8.41a49.54,49.54,0,0,1,3.29,18.17,33.3,33.3,0,0,1-.51,6l-1,5.42h65.9l11.66-54.78q-15.72-8.67-40.55-14.11a247.69,247.69,0,0,0-52.72-5.42,229.36,229.36,0,0,0-44.35,4.34" fill="none" stroke="#1d1d1b" stroke-miterlimit="10" stroke-width="0.71"/><g clip-path="url(#l)"><rect x="1995.44" y="288.96" width="286.9" height="237.59" stroke="#1d1d1b" stroke-miterlimit="10" stroke-width="0.71" fill="url(#m)"/></g><path d="M2178.93,289l-34,168.7a75.45,75.45,0,0,1-12.67,12.47q-8.12,6.53-17.24,6.51-8.62,0-11.91-5.7a27,27,0,0,1-3.29-13.82,59.64,59.64,0,0,1,.76-8.41c.5-3.43,1.09-7.06,1.77-10.85s1.35-7.68,2-11.67,1.34-7.4,2-10.3L2131.79,289h-102.9L2007.6,394.73q-3.55,17.91-7.85,38.24t-4.31,33.91q0,26.58,17.23,43.13t47.65,16.54q22.8,0,45.37-11.12t35.73-27.94h3l9.13,34.72h82.11L2282.33,289Z" fill="none" stroke="#1d1d1b" stroke-miterlimit="10" stroke-width="0.71"/><g clip-path="url(#n)"><rect x="2321.92" y="275.94" width="241.79" height="243.56" stroke="#1d1d1b" stroke-miterlimit="10" stroke-width="0.71" fill="url(#o)"/></g><path d="M2426.09,280.27a133.58,133.58,0,0,0-39.54,14.11,82.38,82.38,0,0,0-28.39,25.77q-10.9,16-10.89,39.86,0,16.83,5.07,27.94A55.89,55.89,0,0,0,2365,406.12,59.91,59.91,0,0,0,2381,417a88.46,88.46,0,0,0,15,5.43q9.12,2.72,19,5.69a112.88,112.88,0,0,1,18,7.06,46.63,46.63,0,0,1,13.43,9.76,18.86,18.86,0,0,1,5.33,13.28q0,7.6-6.34,16.55t-21,8.95q-13.18,0-18.5-7.31t-5.31-19.81v-5.15a28,28,0,0,1,.5-5.16h-68.43l-10.65,54.25q10.65,6,37.51,12.47t67.93,6.51a318.59,318.59,0,0,0,50.43-3.79q23.58-3.81,41.06-13.3a73,73,0,0,0,27.37-24.95q9.89-15.46,9.88-38.24,0-16.27-5.06-27.39a55.16,55.16,0,0,0-13.69-18.72,71.55,71.55,0,0,0-19.52-12.2,177.88,177.88,0,0,0-23.06-7.87q-8.62-2.16-17.49-4.34a88.51,88.51,0,0,1-16-5.42,31.77,31.77,0,0,1-11.41-8.41q-4.3-5.14-4.3-13.83,0-13,8.61-20.88t17.23-7.87q9.63,0,12.93,8.4a49.6,49.6,0,0,1,3.3,18.18,33.3,33.3,0,0,1-.51,6l-1,5.42h65.91l11.65-54.79q-15.72-8.67-40.55-14.1a247.12,247.12,0,0,0-52.72-5.42,230.13,230.13,0,0,0-44.35,4.33" fill="none" stroke="#1d1d1b" stroke-miterlimit="10" stroke-width="0.71"/><g clip-path="url(#p)"><rect x="2617.09" y="407.75" width="102.9" height="98.18" stroke="#1d1d1b" stroke-miterlimit="10" stroke-width="0.71" fill="url(#q)"/></g><path d="M2651.31,411.27a55.25,55.25,0,0,0-17.49,10,47.49,47.49,0,0,0-12.16,16.28,51.92,51.92,0,0,0-4.57,22.23q0,23.88,13.43,35t32.71,11.12a64.37,64.37,0,0,0,21.28-3.53,57.68,57.68,0,0,0,18-10,49,49,0,0,0,12.67-16.28,49.56,49.56,0,0,0,4.82-22.23q0-23.87-13.69-35t-34.47-11.12a60.9,60.9,0,0,0-20.53,3.52" fill="none" stroke="#1d1d1b" stroke-miterlimit="10" stroke-width="0.71"/><g clip-path="url(#r)"><rect x="2753.74" y="272.91" width="267.13" height="243.55" stroke="#1d1d1b" stroke-miterlimit="10" stroke-width="0.71" fill="url(#s)"/></g><path d="M2856.38,459.51Q2850,453,2850.05,440a46,46,0,0,1,3-16.28,41.79,41.79,0,0,1,9.37-14.65,46.51,46.51,0,0,1,16.73-10.57q10.38-4.07,25.09-4.07h9.12l-8.11,41.77a34.74,34.74,0,0,1-12.92,21.7c-6.94,5.41-13.94,8.14-21,8.14a20.21,20.21,0,0,1-15-6.52m-6.58-180.36a219.82,219.82,0,0,0-53,19.8l-9.63,48.27h74q2.53-15.72,10.9-26.85t26.1-11.12c10.15,0,16.81,2.81,20,8.41a36,36,0,0,1,4.81,18.18,118.43,118.43,0,0,1-1.52,17.62q-1.51,10.05-2.53,15.46-29.92,0-59.56,2.17t-53.22,10.58q-23.58,8.41-38,24.95t-14.45,44.76q0,17.36,5.57,29.56A57.62,57.62,0,0,0,2774,501a59.85,59.85,0,0,0,20.79,11.68,77.09,77.09,0,0,0,23.82,3.78q21.3,0,42.84-10a111,111,0,0,0,37.76-29h3l9.12,34.72H2993l23.83-119.34q1.53-8.13,2.79-20.07a212.56,212.56,0,0,0,1.26-22.24q0-17.89-5.06-32a55.43,55.43,0,0,0-17.75-24.41q-12.66-10.31-34-15.74t-53.73-5.42q-33.45,0-60.57,6.24" fill="none" stroke="#1d1d1b" stroke-miterlimit="10" stroke-width="0.71"/><g clip-path="url(#t)"><rect x="3062.79" y="200.48" width="189.58" height="310.27" stroke="#1d1d1b" stroke-miterlimit="10" stroke-width="0.71" fill="url(#u)"/></g><path d="M3175.32,200.48a351.1,351.1,0,0,1-23.57,29.29,132.4,132.4,0,0,1-22.8,20.07,126.47,126.47,0,0,1-26.11,13.56,250.15,250.15,0,0,1-33,9.76l-7.1,36.34h39.54l-21.29,108a167.33,167.33,0,0,0-3.29,21.7q-.77,9.77-.77,16.28,0,18.44,5.83,29.29a41.46,41.46,0,0,0,15.46,16.54,61,61,0,0,0,21.8,7.6,161.57,161.57,0,0,0,24.84,1.89q7.1,0,16.47-.26t18.25-1.09c5.91-.54,11.32-1,16.22-1.35a53.91,53.91,0,0,0,10.9-1.64l7.6-37.42q-20.26,0-27.62-2.72t-7.35-13.56a104.81,104.81,0,0,1,1.52-15.19q1.53-9.75,4-22.24l20.79-105.78h40l6.59-36.34h-39.53l14.69-72.68Z" fill="none" stroke="#1d1d1b" stroke-miterlimit="10" stroke-width="0.71"/></svg>